<svg width="21" height="24" viewBox="0 0 21 24" fill="none" xmlns="http://www.w3.org/2000/svg">
<path d="M13.5564 14.686C16.81 15.7634 20.4656 17.7913 20.4656 19.8696V20.6261C20.4656 23.375 15.2028 24 10.2627 24C5.33002 24 0 23.375 0 20.6261V19.8696C0 17.8519 3.63792 15.8082 6.73854 14.6869C6.96242 14.6048 8.03327 14.0218 7.43441 12.451L15.7419 5.83932C15.7419 8.08147 14.7969 10.3553 13.4949 11.9342H13.0564H13.048V12.4315L13.0437 12.43L12.5814 12.278C12.5044 12.5122 12.4496 12.7307 12.4146 12.9342M13.5564 14.686C13.4231 14.6424 12.6523 14.2966 12.9229 12.9342H12.4146M13.5564 14.686L13.401 15.1612C13.2457 15.1104 12.8489 14.9269 12.5907 14.4464C12.3901 14.0732 12.3037 13.5785 12.4146 12.9342M13.5564 14.686L13.3992 15.1606C14.997 15.6897 16.6784 16.448 17.9492 17.3154C18.5849 17.7493 19.0996 18.1983 19.4509 18.6439C19.803 19.0905 19.9656 19.5005 19.9656 19.8696V20.6261C19.9656 21.1259 19.7366 21.5457 19.2585 21.9187C18.7655 22.3034 18.0285 22.6175 17.0915 22.8598C15.2217 23.3433 12.7227 23.5 10.2627 23.5C7.80654 23.5 5.29212 23.3433 3.4058 22.8596C2.46042 22.6171 1.71485 22.3026 1.21539 21.9171C0.730654 21.543 0.5 21.1234 0.5 20.6261V19.8696C0.5 19.5183 0.659183 19.1191 1.00916 18.6763C1.35753 18.2355 1.86678 17.788 2.49228 17.3524C3.74242 16.4818 5.3842 15.7084 6.90858 15.1571L6.91067 15.1564C7.09601 15.0884 7.52362 14.8636 7.81867 14.3928C8.13312 13.8911 8.24959 13.1856 7.90161 12.2729L7.86452 12.1756L7.79166 12.1012C6.34103 10.6197 5.23769 8.20222 5.23769 5.83932C5.23769 4.03834 5.82997 2.71417 6.72421 1.84029C7.62227 0.962674 8.86493 0.5 10.2337 0.5C11.6016 0.5 12.8477 0.96293 13.7492 1.84118C14.6467 2.71552 15.2419 4.03967 15.2419 5.83932C15.2419 8.19024 14.1333 10.5987 12.6893 12.0859L11.8656 12.9342H12.4146" fill="#4C5214" stroke="#4C5214"/>
</svg>
