<svg width="24" height="20" viewBox="0 0 24 20" fill="none" xmlns="http://www.w3.org/2000/svg">
<path d="M23.5 2.39939V2.4V16.8C23.5 17.3265 23.3185 17.7649 22.9417 18.1423C22.5655 18.5193 22.1276 18.7006 21.6006 18.7H21.6H2.4C1.87354 18.7 1.43564 18.5185 1.05915 18.142C0.682712 17.7656 0.500703 17.3272 0.5 16.7997V2.4C0.5 1.87381 0.681655 1.43601 1.05885 1.05945C1.43646 0.682484 1.87473 0.500702 2.40033 0.5H21.6C22.1262 0.5 22.5646 0.681683 22.942 1.05915C23.3195 1.43661 23.5006 1.87438 23.5 2.39939ZM24 2.4V16.8C24 17.46 23.7652 18.0252 23.2956 18.4956C22.826 18.966 22.2608 19.2008 21.6 19.2H2.4C1.74 19.2 1.1752 18.9652 0.7056 18.4956C0.236 18.026 0.0008 17.4608 0 16.8L24 2.4ZM11.735 11.224L12 11.3896L12.265 11.224L21.865 5.224L22.1 5.07712V4.8V2.4V1.49788L21.335 1.976L12 7.81038L2.665 1.976L1.9 1.49788V2.4V4.8V5.07712L2.135 5.224L11.735 11.224Z" fill="#4C5214" stroke="#4C5214"/>
</svg>
