<svg xmlns="http://www.w3.org/2000/svg" viewBox="0 0 238 263"><defs><style>.cls-1{fill:#fff;}</style></defs><title>Plan de travail 12 copie 3</title><g id="Calque_1" data-name="Calque 1"><path class="cls-1" d="M69.65,125.4a12.33,12.33,0,0,0,16.38-6l29.55-65.56,22.11,48H115a12.33,12.33,0,0,0,0,24.66h41.9a12.2,12.2,0,0,0,5-1.08,12.33,12.33,0,0,0,6.2-16.3L127,19.18a12.32,12.32,0,0,0-11.16-7.28h-.09A12.31,12.31,0,0,0,104.61,19L63.68,109A12.32,12.32,0,0,0,69.65,125.4Z"/><path class="cls-1" d="M18.39,243.25a13.29,13.29,0,0,0-1.77-.57,12.83,12.83,0,0,1-1.61-.52,2.75,2.75,0,0,1-1-.69,1.72,1.72,0,0,1-.41-1.19,1.75,1.75,0,0,1,.73-1.41,2.89,2.89,0,0,1,1.86-.58,3,3,0,0,1,2.08.66,2.31,2.31,0,0,1,.82,1.7h.87a3,3,0,0,0-1.1-2.27,4.06,4.06,0,0,0-2.65-.82,4.32,4.32,0,0,0-1.8.36,3.11,3.11,0,0,0-1.24,1,2.35,2.35,0,0,0-.44,1.36,2.41,2.41,0,0,0,.5,1.6,3.18,3.18,0,0,0,1.22.9,13.72,13.72,0,0,0,1.87.61,14,14,0,0,1,1.53.47,2.61,2.61,0,0,1,.94.6,1.44,1.44,0,0,1,.37,1,1.91,1.91,0,0,1-.7,1.5,2.86,2.86,0,0,1-1.91.61,3.89,3.89,0,0,1-2.29-.6,2.14,2.14,0,0,1-.93-1.63h-.89a2.88,2.88,0,0,0,1.24,2.21,5,5,0,0,0,2.87.77A4.11,4.11,0,0,0,18.3,248a2.91,2.91,0,0,0,1.24-1,2.62,2.62,0,0,0,.44-1.47,2.07,2.07,0,0,0-.46-1.42A2.94,2.94,0,0,0,18.39,243.25Z"/><path class="cls-1" d="M23.44,235h-.87v2.67H21v.75h1.58v6.94a3,3,0,0,0,.65,2.16,2.75,2.75,0,0,0,2,.64h1.31v-.77H25.37a2.05,2.05,0,0,1-1.5-.43,2.27,2.27,0,0,1-.43-1.6v-6.94h3.11v-.75H23.44Z"/><path class="cls-1" d="M36.37,243.31a4.52,4.52,0,0,1-1,3.21,3.53,3.53,0,0,1-2.71,1.08,3.39,3.39,0,0,1-2.57-1,4,4,0,0,1-.95-2.87v-6.05h-.85v6.11a4.56,4.56,0,0,0,1.19,3.41,4.24,4.24,0,0,0,3.06,1.15,4.47,4.47,0,0,0,2.37-.63,3.51,3.51,0,0,0,1.48-1.83v2.28h.87V237.69h-.87Z"/><path class="cls-1" d="M48.89,240.44a4.33,4.33,0,0,0-1.66-2.08,4.81,4.81,0,0,0-2.78-.8,5.25,5.25,0,0,0-2.62.65,4.6,4.6,0,0,0-1.8,1.88,6,6,0,0,0-.65,2.84,6.05,6.05,0,0,0,.65,2.85,4.56,4.56,0,0,0,1.8,1.89,5.06,5.06,0,0,0,2.62.67,4.76,4.76,0,0,0,2.82-.82,4.39,4.39,0,0,0,1.62-2.12v2.78h.87v-14.3h-.87Zm-.56,4.93A4,4,0,0,1,46.77,247a4.36,4.36,0,0,1-2.21.57,4.42,4.42,0,0,1-2.23-.56,3.88,3.88,0,0,1-1.52-1.61,5.94,5.94,0,0,1,0-5,3.86,3.86,0,0,1,1.51-1.59,4.4,4.4,0,0,1,2.24-.55,4.29,4.29,0,0,1,2.2.57,4.06,4.06,0,0,1,1.56,1.62,5,5,0,0,1,.57,2.43A5.14,5.14,0,0,1,48.33,245.37Z"/><rect class="cls-1" x="52.45" y="237.69" width="0.87" height="10.49"/><path class="cls-1" d="M52.89,233.85a.7.7,0,0,0-.52.21.73.73,0,0,0-.21.54.72.72,0,0,0,.21.55.78.78,0,0,0,1,0,.72.72,0,0,0,.21-.55.73.73,0,0,0-.21-.54A.7.7,0,0,0,52.89,233.85Z"/><path class="cls-1" d="M63.32,238.2a5.37,5.37,0,0,0-2.64-.64,5.48,5.48,0,0,0-2.66.64,4.68,4.68,0,0,0-1.86,1.88,5.72,5.72,0,0,0-.68,2.85,5.88,5.88,0,0,0,.67,2.87A4.63,4.63,0,0,0,58,247.68a5.34,5.34,0,0,0,2.65.66,5.41,5.41,0,0,0,2.66-.66,4.68,4.68,0,0,0,1.86-1.88,6.42,6.42,0,0,0,0-5.73A4.63,4.63,0,0,0,63.32,238.2Zm1.05,7.3a3.85,3.85,0,0,1-1.6,1.55,4.59,4.59,0,0,1-2.13.52,4.52,4.52,0,0,1-2.12-.52A3.81,3.81,0,0,1,57,245.5a5.09,5.09,0,0,1-.59-2.57,5,5,0,0,1,.6-2.55,3.86,3.86,0,0,1,1.57-1.56,4.66,4.66,0,0,1,4.24,0,3.85,3.85,0,0,1,1.59,1.56,5,5,0,0,1,.6,2.55A5.09,5.09,0,0,1,64.37,245.5Z"/><path class="cls-1" d="M81.93,240.44a4.27,4.27,0,0,0-1.66-2.08,4.76,4.76,0,0,0-2.78-.8,5.27,5.27,0,0,0-2.62.65,4.6,4.6,0,0,0-1.8,1.88,6,6,0,0,0-.64,2.84,6,6,0,0,0,.64,2.85,4.56,4.56,0,0,0,1.8,1.89,5.08,5.08,0,0,0,2.62.67,4.72,4.72,0,0,0,2.82-.82,4.39,4.39,0,0,0,1.62-2.12v2.78h.87v-14.3h-.87Zm-.56,4.93A4,4,0,0,1,79.82,247a4.39,4.39,0,0,1-2.22.57,4.45,4.45,0,0,1-2.23-.56,3.85,3.85,0,0,1-1.51-1.61,5.84,5.84,0,0,1,0-5,3.84,3.84,0,0,1,1.5-1.59,4.43,4.43,0,0,1,2.24-.55,4.33,4.33,0,0,1,2.21.57,4.1,4.1,0,0,1,1.55,1.62,5.53,5.53,0,0,1,0,4.87Z"/><path class="cls-1" d="M92.67,238.2a5.14,5.14,0,0,0-2.62-.64,5.36,5.36,0,0,0-2.65.64,4.66,4.66,0,0,0-1.81,1.87,6,6,0,0,0-.64,2.86,6.1,6.1,0,0,0,.65,2.87,4.65,4.65,0,0,0,1.82,1.88,5.21,5.21,0,0,0,2.63.66,5.06,5.06,0,0,0,3.23-1,4.2,4.2,0,0,0,1.58-2.6H94a3.32,3.32,0,0,1-1.31,2.08c-.7.51-1.56-.27-2.59-.27-.75,0-1.44.87-2.07.55a3.74,3.74,0,0,1-1.53-1.45,4.78,4.78,0,0,1-.61-2.37H94.9c0-.24,0-.58,0-1.05a4.89,4.89,0,0,0-.58-2.31A4.5,4.5,0,0,0,92.67,238.2Zm-6.83,4.36a4.69,4.69,0,0,1,.62-2.36A3.9,3.9,0,0,1,88,238.76a4.53,4.53,0,0,1,2-.47,4.6,4.6,0,0,1,2,.47,3.58,3.58,0,0,1,1.5,1.44,4.39,4.39,0,0,1,.49,2.36Z"/><path class="cls-1" d="M104.48,238.8a4.39,4.39,0,0,1,2.11-.51,4.31,4.31,0,0,1,2.6.77,3.27,3.27,0,0,1,1.3,2.13h.91a4.24,4.24,0,0,0-1.57-2.65,5.12,5.12,0,0,0-3.24-1,5.32,5.32,0,0,0-2.64.64,4.7,4.7,0,0,0-1.8,1.87,6,6,0,0,0-.64,2.86,6.1,6.1,0,0,0,.64,2.87,4.66,4.66,0,0,0,1.8,1.88,5.23,5.23,0,0,0,2.64.66,5.07,5.07,0,0,0,3.23-1,4.27,4.27,0,0,0,1.58-2.64h-.91a3.23,3.23,0,0,1-1.3,2.12,4.25,4.25,0,0,1-2.6.78,4.29,4.29,0,0,1-2.11-.53A3.79,3.79,0,0,1,103,245.5a6.06,6.06,0,0,1,0-5.13A3.76,3.76,0,0,1,104.48,238.8Z"/><path class="cls-1" d="M114.43,239.86v-2.17h-.87v10.49h.87v-6a3.59,3.59,0,0,1,1-2.87,3.78,3.78,0,0,1,2.57-.88h.29v-.91a4.64,4.64,0,0,0-2.51.61A3.16,3.16,0,0,0,114.43,239.86Z"/><path class="cls-1" d="M127,238.2a5.1,5.1,0,0,0-2.61-.64,5.33,5.33,0,0,0-2.65.64,4.59,4.59,0,0,0-1.81,1.87,6.59,6.59,0,0,0,0,5.73,4.58,4.58,0,0,0,1.82,1.88,5.21,5.21,0,0,0,2.63.66,5,5,0,0,0,3.22-1,4.22,4.22,0,0,0,1.59-2.6h-.91a3.29,3.29,0,0,1-1.32,2.08,4.22,4.22,0,0,1-2.58.77,4.51,4.51,0,0,1-2.07-.49,3.74,3.74,0,0,1-1.53-1.45,4.78,4.78,0,0,1-.62-2.37h9.07c0-.24,0-.58,0-1.05a4.77,4.77,0,0,0-.58-2.31A4.43,4.43,0,0,0,127,238.2Zm-6.83,4.36a4.8,4.8,0,0,1,.63-2.36,3.78,3.78,0,0,1,1.53-1.44,4.5,4.5,0,0,1,2-.47,4.56,4.56,0,0,1,2,.47,3.53,3.53,0,0,1,1.5,1.44,4.3,4.3,0,0,1,.49,2.36Z"/><polygon class="cls-1" points="125.97 234.44 125.97 233.59 122.18 236.13 122.18 236.84 125.97 234.44"/><path class="cls-1" d="M140.41,240.44a4.33,4.33,0,0,0-1.63-2.07,4.79,4.79,0,0,0-2.82-.81,5.27,5.27,0,0,0-2.62.65,4.64,4.64,0,0,0-1.79,1.88,5.87,5.87,0,0,0-.65,2.84,5.93,5.93,0,0,0,.65,2.85,4.6,4.6,0,0,0,1.79,1.89,5.08,5.08,0,0,0,2.62.67,4.73,4.73,0,0,0,2.81-.82,4.37,4.37,0,0,0,1.64-2.1v2.76h.86V237.69h-.86Zm-.57,4.93a4,4,0,0,1-1.55,1.63,4.36,4.36,0,0,1-2.21.57,4.49,4.49,0,0,1-2.24-.56,3.85,3.85,0,0,1-1.51-1.61,5.94,5.94,0,0,1,0-5,3.84,3.84,0,0,1,1.5-1.59,4.47,4.47,0,0,1,2.25-.55,4.32,4.32,0,0,1,2.2.57,4,4,0,0,1,1.55,1.62,5.44,5.44,0,0,1,0,4.87Z"/><path class="cls-1" d="M145.26,235h-.87v2.67H142.8v.75h1.59v6.94a3,3,0,0,0,.64,2.16,2.77,2.77,0,0,0,2,.64h1.32v-.77h-1.18a2.08,2.08,0,0,1-1.51-.43,2.33,2.33,0,0,1-.42-1.6v-6.94h3.11v-.75h-3.11Z"/><path class="cls-1" d="M150.63,233.85a.74.74,0,0,0-.53.21.73.73,0,0,0-.21.54.72.72,0,0,0,.21.55.73.73,0,0,0,.53.2.71.71,0,0,0,.52-.2.72.72,0,0,0,.21-.55.73.73,0,0,0-.21-.54A.72.72,0,0,0,150.63,233.85Z"/><rect class="cls-1" x="150.18" y="237.69" width="0.87" height="10.49"/><path class="cls-1" d="M161.06,238.2a5.41,5.41,0,0,0-2.65-.64,5.47,5.47,0,0,0-2.65.64,4.64,4.64,0,0,0-1.87,1.88,5.83,5.83,0,0,0-.67,2.85,6,6,0,0,0,.66,2.87,4.65,4.65,0,0,0,1.85,1.88,5.32,5.32,0,0,0,2.65.66,5.37,5.37,0,0,0,2.65-.66,4.7,4.7,0,0,0,1.87-1.88,6.5,6.5,0,0,0,0-5.73A4.69,4.69,0,0,0,161.06,238.2Zm1,7.3a3.82,3.82,0,0,1-1.59,1.55,4.59,4.59,0,0,1-2.13.52,4.52,4.52,0,0,1-2.12-.52,3.9,3.9,0,0,1-1.57-1.55,5.2,5.2,0,0,1-.59-2.57,5,5,0,0,1,.6-2.55,3.88,3.88,0,0,1,1.58-1.56,4.49,4.49,0,0,1,2.12-.51,4.57,4.57,0,0,1,2.12.51,3.77,3.77,0,0,1,1.58,1.56,5,5,0,0,1,.6,2.55A5.09,5.09,0,0,1,162.1,245.5Z"/><path class="cls-1" d="M170.47,237.48a4.45,4.45,0,0,0-2.38.63,3.47,3.47,0,0,0-1.48,1.8v-2.22h-.87v10.49h.87v-5.66a4.59,4.59,0,0,1,1-3.21,3.56,3.56,0,0,1,2.72-1.08,3.36,3.36,0,0,1,2.57,1,4,4,0,0,1,.94,2.87v6.08h.85V242a4.54,4.54,0,0,0-1.18-3.41A4.16,4.16,0,0,0,170.47,237.48Z"/><polygon class="cls-1" points="192.27 247.16 188.93 237.69 188.09 237.69 184.73 247.2 181.91 237.69 181 237.69 184.31 248.18 185.14 248.18 188.5 238.89 191.84 248.18 192.67 248.18 195.98 237.69 195.09 237.69 192.27 247.16"/><path class="cls-1" d="M204.59,238.2a5.14,5.14,0,0,0-2.62-.64,5.36,5.36,0,0,0-2.65.64,4.57,4.57,0,0,0-1.8,1.87,5.89,5.89,0,0,0-.65,2.86,6.1,6.1,0,0,0,.65,2.87,4.65,4.65,0,0,0,1.82,1.88,5.21,5.21,0,0,0,2.63.66,5.06,5.06,0,0,0,3.23-1,4.2,4.2,0,0,0,1.58-2.6h-.91a3.32,3.32,0,0,1-1.31,2.08,4.28,4.28,0,0,1-2.59.77,4.51,4.51,0,0,1-2.07-.49,3.65,3.65,0,0,1-1.52-1.45,4.68,4.68,0,0,1-.62-2.37h9.06c0-.24,0-.58,0-1.05a4.89,4.89,0,0,0-.58-2.31A4.5,4.5,0,0,0,204.59,238.2Zm-6.83,4.36a4.69,4.69,0,0,1,.62-2.36,3.9,3.9,0,0,1,1.53-1.44,4.68,4.68,0,0,1,4.09,0,3.58,3.58,0,0,1,1.5,1.44,4.39,4.39,0,0,1,.49,2.36Z"/><path class="cls-1" d="M218.73,240.09a4.6,4.6,0,0,0-1.8-1.88,5.21,5.21,0,0,0-2.61-.65,4.8,4.8,0,0,0-2.81.81,4.39,4.39,0,0,0-1.64,2.08v-6.57H209v14.3h.87v-2.74a4.33,4.33,0,0,0,1.63,2.09,4.83,4.83,0,0,0,2.82.81,5,5,0,0,0,2.61-.67,4.56,4.56,0,0,0,1.8-1.89,6.05,6.05,0,0,0,.65-2.85A6,6,0,0,0,218.73,240.09ZM218,245.4a3.88,3.88,0,0,1-1.52,1.61,4.47,4.47,0,0,1-2.25.56A4.32,4.32,0,0,1,212,247a4.06,4.06,0,0,1-1.55-1.63,5.57,5.57,0,0,1,0-4.87,4,4,0,0,1,1.55-1.62,4.32,4.32,0,0,1,2.2-.57,4.47,4.47,0,0,1,2.25.55,3.82,3.82,0,0,1,1.52,1.59,5.94,5.94,0,0,1,0,5Z"/><path class="cls-1" d="M106,184.43a15.44,15.44,0,0,0-3.42-2.49,14.86,14.86,0,0,0-7-1.69,16.76,16.76,0,0,0-8.89,2.39,16.47,16.47,0,0,0-6.11,6.59,21.7,21.7,0,0,0,0,19,16.77,16.77,0,0,0,6.19,6.63,17,17,0,0,0,8.92,2.38,14.55,14.55,0,0,0,6.92-1.69,16,16,0,0,0,3.38-2.46v3h6.88V181.37H106Zm-1.36,20.62a10.2,10.2,0,0,1-3.69,4.24,9.83,9.83,0,0,1-5.39,1.51,9.58,9.58,0,0,1-5.28-1.5,10.31,10.31,0,0,1-3.66-4.25,14.36,14.36,0,0,1-1.36-6.36,14.12,14.12,0,0,1,1.35-6.26,10.41,10.41,0,0,1,3.67-4.21,9.51,9.51,0,0,1,5.28-1.51,9.83,9.83,0,0,1,5.39,1.51,10.27,10.27,0,0,1,3.69,4.24,15.25,15.25,0,0,1,0,12.59Z"/><rect class="cls-1" x="121.57" y="163.37" width="6.88" height="52.77"/><rect class="cls-1" x="139.7" y="181.37" width="6.88" height="34.78"/><polygon class="cls-1" points="166.18 216.15 166.18 187.83 173.71 187.83 173.71 181.37 166.18 181.37 166.18 170.56 159.3 170.56 159.3 181.37 153.72 181.37 153.72 187.83 159.3 187.83 159.3 216.15 166.18 216.15"/><polygon class="cls-1" points="183.59 230.09 190.63 230.09 209.09 181.37 202.34 181.37 192.66 206.57 182.6 181.37 175.34 181.37 189.16 215.71 183.59 230.09"/><path class="cls-1" d="M66.8,197.18l-18-39L30,199.92l-7.3,16.23h9l5.55-13.33h23.5l6.17,13.33h8.55Zm-26.59-.82L48.72,177l9,19.38Z"/><circle class="cls-1" cx="143.22" cy="172.62" r="4.53"/></g></svg>