<svg width="24" height="24" viewBox="0 0 24 24" fill="none" xmlns="http://www.w3.org/2000/svg">
<path d="M4.47311 10.0331L4.21639 10.2898L4.38104 10.6134C6.34941 14.4818 9.51952 17.6376 13.3853 19.6183L13.7094 19.7844L13.9669 19.5269L16.9002 16.5936C17.1257 16.3681 17.459 16.2951 17.7445 16.393L17.7445 16.393L17.7498 16.3948C19.2936 16.9048 20.9599 17.18 22.6667 17.18C23.1239 17.18 23.5 17.5561 23.5 18.0133V22.6667C23.5 23.1239 23.1239 23.5 22.6667 23.5C10.4228 23.5 0.5 13.5772 0.5 1.33333C0.5 0.876142 0.876142 0.5 1.33333 0.5H6C6.45719 0.5 6.83333 0.876142 6.83333 1.33333C6.83333 3.0522 7.10817 4.70381 7.61729 6.24631C7.70917 6.54233 7.64149 6.86474 7.40645 7.09978L4.47311 10.0331Z" fill="#4C5214" stroke="#4C5214"/>
</svg>
