<svg width="19" height="24" viewBox="0 0 19 24" fill="none" xmlns="http://www.w3.org/2000/svg">
<path d="M3.42857 8.5H3.92857V8V5.71429C3.92857 4.33137 4.47793 3.0051 5.4558 2.02723C6.43367 1.04936 7.75994 0.5 9.14286 0.5C9.82761 0.5 10.5057 0.634871 11.1383 0.896914C11.7709 1.15896 12.3457 1.54304 12.8299 2.02723C13.3141 2.51142 13.6982 3.08624 13.9602 3.71886C14.2223 4.35149 14.3571 5.02954 14.3571 5.71429V8V8.5H14.8571H16C16.4736 8.5 16.9278 8.68814 17.2627 9.02302C17.5976 9.35791 17.7857 9.81211 17.7857 10.2857V21.7143C17.7857 22.1879 17.5976 22.6421 17.2627 22.977C16.9278 23.3119 16.4736 23.5 16 23.5H2.28571C1.81211 23.5 1.35791 23.3119 1.02302 22.977C0.688137 22.6421 0.5 22.1879 0.5 21.7143V10.2857C0.5 9.81211 0.688137 9.35791 1.02302 9.02302C1.35791 8.68814 1.81211 8.5 2.28571 8.5H3.42857ZM5.21429 8V8.5H5.71429H12.5714H13.0714V8V5.71429C13.0714 4.67236 12.6575 3.67312 11.9208 2.93637C11.184 2.19962 10.1848 1.78571 9.14286 1.78571C8.10093 1.78571 7.10169 2.19962 6.36494 2.93637C5.62819 3.67312 5.21429 4.67236 5.21429 5.71429V8ZM9.14286 18.7857C9.88167 18.7857 10.5902 18.4922 11.1127 17.9698C11.6351 17.4474 11.9286 16.7388 11.9286 16C11.9286 15.2612 11.6351 14.5526 11.1127 14.0302C10.5902 13.5078 9.88167 13.2143 9.14286 13.2143C8.40404 13.2143 7.69548 13.5078 7.17306 14.0302C6.65064 14.5526 6.35714 15.2612 6.35714 16C6.35714 16.7388 6.65064 17.4474 7.17306 17.9698C7.69548 18.4922 8.40404 18.7857 9.14286 18.7857Z" fill="#4C5214" stroke="#4C5214"/>
</svg>
